<svg width="18" height="18" viewBox="0 0 18 18" fill="none" xmlns="http://www.w3.org/2000/svg">
<path fill-rule="evenodd" clip-rule="evenodd" d="M6.12339 1.94971H11.8765C12.2738 1.9497 12.6123 1.94969 12.8901 1.97239C13.182 1.99623 13.4659 2.04846 13.7373 2.18677C14.1466 2.39529 14.4793 2.72803 14.6878 3.13728C14.8262 3.40873 14.8784 3.69267 14.9022 3.98455C14.9249 4.26237 14.9249 4.60075 14.9249 4.99816V16.1247C14.9249 16.3685 14.7934 16.5934 14.5809 16.713C14.3685 16.8325 14.108 16.8282 13.8996 16.7017L8.99993 13.7269L4.10026 16.7017C3.89185 16.8282 3.6314 16.8325 3.41892 16.713C3.20644 16.5934 3.07495 16.3685 3.07495 16.1247V4.99816C3.07494 4.60077 3.07493 4.26236 3.09763 3.98455C3.12148 3.69267 3.1737 3.40873 3.31201 3.13728C3.52054 2.72803 3.85327 2.39529 4.26252 2.18677C4.53397 2.04846 4.81791 1.99623 5.10978 1.97239C5.38759 1.94969 5.72602 1.9497 6.12339 1.94971ZM5.84997 3.29976C5.23905 3.29976 5.09367 3.30809 4.99503 3.34014C4.74387 3.42175 4.54696 3.61866 4.46535 3.86982C4.4333 3.96846 4.42497 4.11384 4.42497 4.72476V14.9253L8.64965 12.3603C8.8649 12.2296 9.13501 12.2296 9.35027 12.3603L13.5749 14.9253V4.72476C13.5749 4.11384 13.5666 3.96846 13.5346 3.86982C13.453 3.61866 13.256 3.42175 13.0049 3.34014C12.9062 3.30809 12.7609 3.29976 12.1499 3.29976H5.84997Z" fill="#858688" />
</svg>
