<svg width="278" height="24" viewBox="0 0 278 24" fill="none" xmlns="http://www.w3.org/2000/svg">
<path fill-rule="evenodd" clip-rule="evenodd" d="M209.589 0.0960894C170.505 0.368923 159.33 0.546407 137.645 1.23923C115.171 1.95722 99.0885 2.67692 73.5701 4.10657C67.6544 4.43799 61.3202 4.75252 53.8944 5.08348C26.6163 6.29923 21.3081 6.62319 12.4898 7.60998C8.1206 8.09902 4.34201 8.43744 2.22421 8.52969C0.341331 8.6116 0 8.66318 0 8.86571C0 9.04468 3.01141 9.20149 4.65853 9.10821C5.2488 9.0749 6.84801 8.99322 8.21248 8.92694C9.57695 8.86054 12.5796 8.68236 14.8851 8.53095C20.3141 8.17426 22.9207 8.06179 32.2511 7.78161C47.9364 7.31061 59.7855 6.85799 74.34 6.1739C79.7038 5.92174 86.8256 5.587 90.1662 5.42996C115.502 4.2388 146.451 3.17664 165.362 2.84935C188.311 2.45199 259.554 2.1007 258.351 2.39065C257.874 2.50564 249.722 3.3609 244.834 3.80869C240.345 4.22007 232.845 4.81341 223.619 5.48705C219.243 5.80664 213.238 6.24892 210.274 6.46994C199.138 7.30039 195.47 7.55794 189.144 7.95415C159.998 9.77921 140.745 11.3696 113.948 14.1655C98.0202 15.8273 84.9649 17.735 70.3956 20.5299C62.1123 22.1189 61.3053 22.4011 62.1205 23.4241C62.6511 24.0897 66.8306 24.176 75.2603 23.6952C90.6657 22.8168 105.142 22.1354 119.166 21.6288C127.963 21.3111 129.128 21.2578 138.072 20.7645C141.413 20.5803 147.187 20.311 150.904 20.1663L157.662 19.9031L148.68 19.7994C135.069 19.6421 120.468 19.6517 115.659 19.821C99.7392 20.3816 91.0801 20.8131 76.9364 21.7503C73.5651 21.9738 70.7211 22.1374 70.616 22.1139C69.6031 21.8872 92.2742 18.4608 103.09 17.2061C127.504 14.3736 152.645 12.2602 191.282 9.79242C194.811 9.56703 201.894 9.07398 207.023 8.69684C212.151 8.31958 220.236 7.72566 224.988 7.37678C243.278 6.03421 248.728 5.53415 266.307 3.58526C277.565 2.337 277.625 2.32632 277.932 1.5054C278.27 0.602814 277.368 0.193279 274.784 0.0762186C272.329 -0.0350974 226.37 -0.0210854 209.589 0.0960894ZM158.392 19.812C158.604 19.8395 158.912 19.8384 159.076 19.8097C159.24 19.781 159.065 19.7585 158.689 19.7597C158.313 19.761 158.179 19.7846 158.392 19.812Z" fill="#7EA7FF"/>
</svg>
