<svg width="350" height="75" viewBox="0 0 350 75" fill="none" xmlns="http://www.w3.org/2000/svg">
<path d="M306.688 41.5165H265.646V33.7865H270.784V19.4036H265.646V11.6736H306.688V19.4036H301.549V33.7865H306.688V41.5165ZM312.58 65.2768V53.6184H271.264V45.9518H323.337V65.2768H312.58ZM323.337 11.04V43.1006H312.58V11.04H323.337ZM281.542 33.7865H290.791V19.4036H281.542V33.7865Z" fill="black"/>
<path d="M227.231 37.8416C227.231 42.657 226.683 46.7755 225.586 50.0702C224.422 53.4283 222.983 56.1529 221.201 58.1804C219.351 60.2079 217.296 61.6652 214.966 62.6156C212.568 63.5027 210.17 64.0096 207.703 64.0096C205.168 64.0096 202.77 63.5027 200.44 62.6156C198.042 61.6652 195.987 60.2079 194.205 58.1804C192.355 56.1529 190.916 53.4283 189.82 50.0702C188.724 46.7755 188.176 42.657 188.176 37.8416C188.176 33.0262 188.724 28.9711 189.82 25.613C190.916 22.3182 192.355 19.6571 194.205 17.5662C195.987 15.5386 198.042 14.018 200.44 13.0676C202.77 12.1805 205.168 11.6736 207.703 11.6736C210.17 11.6736 212.568 12.1805 214.966 13.0676C217.296 14.018 219.351 15.5386 221.201 17.5662C222.983 19.6571 224.422 22.3182 225.586 25.613C226.683 28.9711 227.231 33.0262 227.231 37.8416ZM198.865 37.8416C198.865 41.4532 199.07 44.4311 199.618 46.7755C200.029 49.1832 200.715 51.0206 201.537 52.4146C202.29 53.8719 203.25 54.8856 204.346 55.3925C205.374 56.0261 206.47 56.2796 207.703 56.2796C208.8 56.2796 209.964 56.0261 211.061 55.3925C212.088 54.8856 213.048 53.8719 213.87 52.4779C214.624 51.084 215.24 49.1832 215.788 46.7755C216.199 44.4311 216.474 41.4532 216.474 37.7783C216.474 34.2301 216.199 31.2521 215.788 28.8444C215.24 26.5 214.624 24.5992 213.87 23.2053C213.048 21.8114 212.088 20.8609 211.061 20.2273C209.964 19.7205 208.8 19.4036 207.703 19.4036C206.47 19.4036 205.374 19.7205 204.346 20.2273C203.25 20.8609 202.29 21.8114 201.537 23.2053C200.715 24.6626 200.029 26.5634 199.618 28.9078C199.07 31.3155 198.865 34.2934 198.865 37.8416ZM245.182 64.0096H234.425V11.04H245.182V64.0096Z" fill="black"/>
<path d="M167.936 64.3272C167.936 67.3685 166.976 69.5228 165.126 70.8534C163.208 72.1206 160.604 72.9443 157.178 73.1977V68.6358C159.097 68.4457 160.467 68.0655 161.358 67.4319C162.18 66.7349 162.66 65.7212 162.66 64.3906H156.904V54.7598H167.936V64.3272Z" fill="#4F29E5"/>
<path d="M124.032 64.0096V11.04H133.898V33.4697L139.928 31.5055V11.04H149.863V64.0096H139.928V40.0592L133.898 42.0234V64.0096H124.032ZM89.1562 20.0373V12.3073H118.55V41.8967H99.0228V55.646H119.236V63.376H89.1562V34.1667H108.684V20.0373H89.1562Z" fill="black"/>
<path d="M68.2978 20.0357H28.5576V12.3057H79.0551V48.9915H68.2978V20.0357ZM25.2002 56.278H82.4124V64.008H25.2002V56.278Z" fill="black"/>
</svg>
