<svg width="18" height="18" viewBox="0 0 18 18" fill="none" xmlns="http://www.w3.org/2000/svg">
<path d="M11.0624 2.13672C10.6897 2.13672 10.3874 2.43893 10.3874 2.81172C10.3874 3.18451 10.6897 3.48672 11.0624 3.48672H13.5578L8.52266 8.52192C8.25905 8.78553 8.25905 9.21291 8.52266 9.47652C8.78626 9.74012 9.21365 9.74012 9.47725 9.47651L14.5124 4.44131V6.93672C14.5124 7.30951 14.8146 7.61172 15.1874 7.61172C15.5602 7.61172 15.8624 7.30951 15.8624 6.93672V2.81172C15.8624 2.43893 15.5602 2.13672 15.1874 2.13672H11.0624Z" fill="#37383C" fill-opacity="0.61"/>
<path d="M7.57461 2.13716C7.9474 2.13716 8.24961 2.43937 8.24961 2.81216C8.24961 3.18495 7.9474 3.48716 7.57461 3.48716H6.41232C5.77112 3.48716 5.33082 3.48768 4.98949 3.51557C4.65604 3.54281 4.47692 3.59277 4.34729 3.65882C4.05093 3.80982 3.80999 4.05077 3.65899 4.34712C3.59294 4.47676 3.54298 4.65588 3.51574 4.98933C3.48785 5.33066 3.48733 5.77096 3.48733 6.41216V11.5872C3.48733 12.2284 3.48785 12.6687 3.51574 13.01C3.54298 13.3434 3.59294 13.5226 3.65899 13.6522C3.80999 13.9485 4.05093 14.1895 4.34729 14.3405C4.47692 14.4065 4.65604 14.4565 4.98949 14.4837C5.33082 14.5116 5.77112 14.5122 6.41232 14.5122H11.5873C12.2285 14.5122 12.6688 14.5116 13.0101 14.4837C13.3436 14.4565 13.5227 14.4065 13.6523 14.3405C13.9487 14.1895 14.1896 13.9485 14.3406 13.6522C14.4067 13.5226 14.4566 13.3434 14.4839 13.01C14.5118 12.6687 14.5123 12.2284 14.5123 11.5872V10.4247C14.5123 10.0519 14.8145 9.74973 15.1873 9.74973C15.5601 9.74973 15.8623 10.0519 15.8623 10.4247V11.6154C15.8623 12.2215 15.8623 12.7171 15.8294 13.1199C15.7953 13.5369 15.7227 13.9134 15.5435 14.2651C15.2631 14.8155 14.8156 15.2629 14.2652 15.5434C13.9136 15.7225 13.537 15.7952 13.1201 15.8293C12.7173 15.8622 12.2216 15.8622 11.6156 15.8622H6.38404C5.778 15.8622 5.28237 15.8622 4.87956 15.8293C4.46263 15.7952 4.08607 15.7225 3.7344 15.5434C3.18403 15.2629 2.73656 14.8155 2.45614 14.2651C2.27695 13.9134 2.20429 13.5369 2.17023 13.1199C2.13732 12.7171 2.13732 12.2215 2.13733 11.6155V6.38388C2.13732 5.77785 2.13732 5.2822 2.17023 4.8794C2.20429 4.46246 2.27695 4.0859 2.45614 3.73424C2.73656 3.18386 3.18403 2.73639 3.7344 2.45596C4.08607 2.27678 4.46263 2.20412 4.87956 2.17005C5.28236 2.13714 5.77799 2.13715 6.38403 2.13716H7.57461Z" fill="#37383C" fill-opacity="0.61"/>
</svg>
