<svg width="20" height="20" viewBox="0 0 20 20" fill="none" xmlns="http://www.w3.org/2000/svg">
<path d="M6.33332 2.58301C3.47499 2.58301 1.25 4.94679 1.25 7.83301C1.25 9.19961 1.74463 10.3503 2.51733 11.4184C3.27573 12.4668 4.33075 13.4731 5.48965 14.5493L5.49319 14.5525L8.60949 17.4092C8.75352 17.5412 8.89171 17.6679 9.01734 17.7661C9.15525 17.8739 9.32334 17.9847 9.53694 18.05C9.83873 18.1423 10.1612 18.1423 10.463 18.05C10.6766 17.9847 10.8447 17.8739 10.9826 17.7661C11.1082 17.6679 11.2464 17.5412 11.3904 17.4092L14.5068 14.5525L14.5103 14.5493C15.6692 13.4731 16.7242 12.4668 17.4826 11.4184C18.2553 10.3503 18.7499 9.19961 18.7499 7.83301C18.7499 4.94679 16.525 2.58301 13.6666 2.58301C12.2146 2.58301 10.9188 3.19728 9.99998 4.18195C9.08111 3.19728 7.78538 2.58301 6.33332 2.58301Z" fill="#FF4242"/>
</svg>
