<svg width="20" height="20" viewBox="0 0 20 20" fill="none" xmlns="http://www.w3.org/2000/svg">
<path fill-rule="evenodd" clip-rule="evenodd" d="M1.25 7.83301C1.25 4.94679 3.47499 2.58301 6.33331 2.58301C7.78537 2.58301 9.0811 3.19728 9.99997 4.18195C10.9188 3.19728 12.2146 2.58301 13.6666 2.58301C16.5249 2.58301 18.7499 4.94679 18.7499 7.83301C18.7499 9.19961 18.2553 10.3503 17.4826 11.4184C16.7242 12.4668 15.6692 13.4731 14.5103 14.5493L14.5068 14.5526L11.3905 17.4091C11.2464 17.5412 11.1082 17.6679 10.9826 17.7661C10.8447 17.8739 10.6766 17.9847 10.463 18.05C10.1612 18.1423 9.83873 18.1423 9.53694 18.05C9.32333 17.9847 9.15525 17.8739 9.01733 17.7661C8.89171 17.6679 8.75352 17.5412 8.60948 17.4092L5.49319 14.5525L5.48965 14.5493C4.33075 13.4731 3.27573 12.4668 2.51733 11.4184C1.74463 10.3503 1.25 9.19961 1.25 7.83301ZM6.3333 4.08284C4.35831 4.08284 2.74998 5.71906 2.74998 7.83284C2.74998 8.79958 3.08868 9.64889 3.73265 10.5391C4.39058 11.4486 5.33495 12.3585 6.50856 13.4483L9.94365 16.5971C9.97551 16.6263 10.0244 16.6263 10.0563 16.5971L13.4914 13.4483C14.665 12.3585 15.6093 11.4486 16.2673 10.5391C16.9112 9.64889 17.2499 8.79958 17.2499 7.83284C17.2499 5.71906 15.6416 4.08284 13.6666 4.08284C12.3892 4.08284 11.2768 4.76057 10.6409 5.80704C10.5049 6.0309 10.2619 6.16758 9.99996 6.16758C9.73801 6.16758 9.49503 6.0309 9.35901 5.80704C8.72314 4.76057 7.61074 4.08284 6.3333 4.08284Z" fill="#AEB0B6"/>
</svg>
